<svg width="74" height="35" viewBox="0 0 74 35" fill="none" xmlns="http://www.w3.org/2000/svg">
  <style>
    .logo {
      fill: rgba(0, 0, 0, 0.66);
    }

    @media (prefers-color-scheme: dark) {
      .logo {
        fill: rgba(255, 255, 255, 0.66);
      }
    }
  </style>

  <path class="logo" d="M0 34.08V0H13.584C16.016 0 18.112 0.416 19.872 1.248C21.632 2.08 22.992 3.264 23.952 4.8C24.912 6.336 25.392 8.16 25.392 10.272C25.392 11.808 25.04 13.184 24.336 14.4C23.664 15.616 22.752 16.592 21.6 17.328C20.48 18.032 19.28 18.432 18 18.528L17.76 18.096C19.904 18.096 21.568 18.592 22.752 19.584C23.936 20.544 24.624 22.064 24.816 24.144L25.728 34.08H20.496L19.68 24.816C19.584 23.44 19.12 22.432 18.288 21.792C17.456 21.12 16.096 20.784 14.208 20.784H5.184V34.08H0ZM5.184 16.032H13.68C15.632 16.032 17.168 15.552 18.288 14.592C19.44 13.6 20.016 12.208 20.016 10.416C20.016 8.592 19.44 7.2 18.288 6.24C17.136 5.248 15.456 4.752 13.248 4.752H5.184V16.032Z"/>
  
  <path class="logo" d="M30.513 34.08V28.032H36.705V34.08H30.513Z"/>
  
  <path class="logo" d="M42.8438 34.08V0H55.5638C59.4678 0 62.5078 0.944 64.6838 2.832C66.8598 4.688 67.9478 7.28 67.9478 10.608C67.9478 12.816 67.4517 14.736 66.4597 16.368C65.4677 17.968 64.0438 19.2 62.1878 20.064C60.3638 20.896 58.1558 21.312 55.5638 21.312H48.0278V34.08H42.8438ZM48.0278 16.608H55.4198C57.7558 16.608 59.5317 16.112 60.7477 15.12C61.9637 14.096 62.5718 12.592 62.5718 10.608C62.5718 8.656 61.9637 7.2 60.7477 6.24C59.5317 5.248 57.7558 4.752 55.4198 4.752H48.0278V16.608Z"/>
  
  <path class="logo" d="M67.0755 34.08V28.032H73.2675V34.08H67.0755Z"/>
</svg>